<?xml version="1.0" standalone="no"?>
<!DOCTYPE svg PUBLIC "-//W3C//DTD SVG 1.1//EN" "http://www.w3.org/Graphics/SVG/1.1/DTD/svg11.dtd"><svg t="1702869031514"
    class="icon" viewBox="0 0 288 288" version="1.1" xmlns="http://www.w3.org/2000/svg" p-id="2021" width="200"
    height="200" xmlns:xlink="http://www.w3.org/1999/xlink">
    <path stroke="null" id="svg_1" p-id="2022"
        d="m141.348116,144.010387l0,-0.00879l0,-0.00879a3.9823,3.754639 0 0 0 -1.222659,-2.711126l0.001332,-0.001256l-23.973715,-22.603178l-0.010655,0.010046a3.995619,3.767196 0 1 0 -5.366117,5.576706l20.934381,19.737597l-21.208746,19.996278l0.001332,0.001256a3.995619,3.767196 0 0 0 5.648474,5.32556l0.001332,0.001256l23.973715,-22.603178l-0.001332,-0.001256a3.9823,3.754639 0 0 0 1.222659,-2.711126zm33.962763,18.835981l-30.63308,0a3.329683,3.13933 0 0 0 -3.329683,3.13933l0,1.255732a3.329683,3.13933 0 0 0 3.329683,3.13933l30.63308,0a3.329683,3.13933 0 0 0 3.329683,-3.13933l0,-1.255732a3.329683,3.13933 0 0 0 -3.329683,-3.13933z" />
</svg>